# Blender v3.6.2 OBJ File: 'photoframe blend.blend'
# www.blender.org
mtllib photoframe .mtl
o NurbsPath.032_NurbsPath.022
v -27.901834 88.175758 0.404438
v 27.901863 2.130001 0.404422
v 27.901892 88.175743 0.404438
v -27.901863 2.130019 0.404422
v -27.901834 88.175758 0.223490
v 27.901863 2.130001 0.223474
v 27.901892 88.175743 0.223490
v -27.901863 2.130019 0.223474
vt 0.971855 1.163261
vt 0.971855 0.052273
vt 0.039767 0.052273
vt 0.039768 1.163261
vt 0.826443 1.002882
vt 0.826443 -0.003826
vt 0.173557 -0.003826
vt 0.173557 1.002883
vn 0.0000 0.0000 -1.0000
usemtl photo-11
s off
f 7/1/1 6/2/1 8/3/1 5/4/1
usemtl glass
f 3/5/1 2/6/1 4/7/1 1/8/1
o NurbsPath.031_NurbsPath.021
v 30.000000 -0.000010 3.057625
v -30.000000 0.000009 3.057626
v -29.999971 90.305771 3.057644
v 30.000029 90.305756 3.057643
v -27.901834 88.175758 0.009643
v 27.901863 2.130001 0.009626
v 27.901892 88.175743 0.009643
v -27.901863 2.130019 0.009626
v 30.000000 -0.000010 0.009625
v 30.000029 90.305756 0.009643
v -29.999971 90.305771 0.009643
v -30.000000 0.000010 0.009625
vt 0.750000 1.000000
vt 1.000000 1.000000
vt 1.000000 0.500000
vt 0.750000 0.500000
vt 0.250000 1.000000
vt 0.500000 1.000000
vt 0.500000 0.500000
vt 0.250000 0.500000
vt 0.000000 1.000000
vt 0.000000 0.500000
vt 0.738147 0.500000
vt 0.938097 0.500000
vt 0.311904 0.500000
vt 0.511853 0.500000
vn 1.0000 -0.0000 0.0000
vn -1.0000 0.0000 0.0000
vn -0.0000 -1.0000 -0.0000
vn 0.0000 0.0000 -1.0000
vn 0.0000 1.0000 0.0000
usemtl frame
s off
f 12/9/2 9/10/2 17/11/2 18/12/2
f 10/13/3 11/14/3 19/15/3 20/16/3
f 9/17/4 10/13/4 20/16/4 17/18/4
f 15/19/5 14/20/5 16/21/5 13/22/5
f 12/9/6 18/12/6 19/15/6 11/14/6
f 14/20/5 15/19/5 18/12/5 17/11/5
f 15/19/5 13/22/5 19/15/5 18/12/5
f 13/22/5 16/21/5 20/16/5 19/15/5
f 16/21/5 14/20/5 17/11/5 20/16/5
o NurbsPath.030_NurbsPath.010
v 30.000000 -0.000010 2.999999
v 29.660589 0.339401 2.760000
v 29.469669 0.530320 2.625000
v 29.469669 0.530320 2.400000
v 29.081469 0.918522 2.199000
v 28.892672 1.107319 1.746000
v 28.727207 1.272783 1.200000
v 28.457802 1.542190 0.867000
v 27.878681 2.121311 0.525000
v 27.878681 2.121311 0.000000
v -30.000000 0.000009 3.000000
v -29.660587 0.339420 2.760000
v -29.469669 0.530339 2.625000
v -29.469669 0.530339 2.400000
v -29.081469 0.918541 2.199000
v -28.892670 1.107338 1.746000
v -28.727207 1.272801 1.200000
v -28.457800 1.542209 0.867000
v -27.878681 2.121329 0.525000
v -27.878681 2.121329 0.000000
v -29.999971 90.305771 3.000017
v -29.660561 89.966362 2.760017
v -29.469641 89.775436 2.625017
v -29.469641 89.775436 2.400017
v -29.081440 89.387238 2.199017
v -28.892643 89.198441 1.746017
v -28.727179 89.032982 1.200017
v -28.457773 88.763573 0.867017
v -27.878653 88.184456 0.525017
v -27.878653 88.184456 0.000017
v 30.000029 90.305756 3.000017
v 29.660618 89.966347 2.760017
v 29.469698 89.775421 2.625017
v 29.469698 89.775421 2.400017
v 29.081497 89.387222 2.199017
v 28.892700 89.198425 1.746017
v 28.727236 89.032967 1.200017
v 28.457830 88.763557 0.867017
v 27.878710 88.184441 0.525017
v 27.878710 88.184441 0.000017
vt 0.000000 0.111111
vt 0.250000 0.111111
vt 0.250000 0.000000
vt 0.000000 0.000000
vt 0.000000 0.222222
vt 0.250000 0.222222
vt 0.000000 0.333333
vt 0.250000 0.333333
vt 0.000000 0.444444
vt 0.250000 0.444444
vt 0.000000 0.555556
vt 0.250000 0.555556
vt 0.000000 0.666667
vt 0.250000 0.666667
vt 0.000000 0.777778
vt 0.250000 0.777778
vt 0.000000 0.888889
vt 0.250000 0.888889
vt 0.000000 1.000000
vt 0.250000 1.000000
vt 0.500000 0.111111
vt 0.500000 0.000000
vt 0.500000 0.222222
vt 0.500000 0.333333
vt 0.500000 0.444444
vt 0.500000 0.555556
vt 0.500000 0.666667
vt 0.500000 0.777778
vt 0.500000 0.888889
vt 0.500000 1.000000
vt 0.750000 0.111111
vt 0.750000 0.000000
vt 0.750000 0.222222
vt 0.750000 0.333333
vt 0.750000 0.444444
vt 0.750000 0.555556
vt 0.750000 0.666667
vt 0.750000 0.777778
vt 0.750000 0.888889
vt 0.750000 1.000000
vt 1.000000 0.111111
vt 1.000000 0.000000
vt 1.000000 0.222222
vt 1.000000 0.333333
vt 1.000000 0.444444
vt 1.000000 0.555556
vt 1.000000 0.666667
vt 1.000000 0.777778
vt 1.000000 0.888889
vt 1.000000 1.000000
vn 0.0000 0.5774 0.8165
vn 0.0000 0.5773 0.8165
vn 0.0000 1.0000 0.0000
vn 0.0000 0.4598 0.8880
vn 0.0000 0.9230 0.3847
vn 0.0000 0.9570 0.2900
vn 0.0000 0.7774 0.6290
vn 0.0000 0.5085 0.8611
vn 0.5773 -0.0000 0.8165
vn 0.5774 -0.0000 0.8165
vn 1.0000 -0.0000 0.0000
vn 0.4598 -0.0000 0.8880
vn 0.9230 -0.0000 0.3847
vn 0.9570 -0.0000 0.2900
vn 0.7774 -0.0000 0.6290
vn 0.5085 -0.0000 0.8611
vn -0.0000 -0.5774 0.8165
vn -0.0000 -0.5773 0.8165
vn -0.0000 -1.0000 0.0000
vn -0.0000 -0.4598 0.8880
vn -0.0000 -0.9230 0.3847
vn -0.0000 -0.9570 0.2900
vn -0.0000 -0.7774 0.6290
vn -0.0000 -0.5085 0.8611
vn -0.5774 -0.0000 0.8165
vn -0.5773 0.0000 0.8165
vn -1.0000 0.0000 0.0000
vn -0.4598 -0.0000 0.8880
vn -0.9230 0.0000 0.3847
vn -0.9570 0.0000 0.2900
vn -0.7774 0.0000 0.6290
vn -0.5085 0.0000 0.8611
usemtl frame
s off
f 22/23/7 32/24/7 31/25/7 21/26/7
f 23/27/8 33/28/8 32/24/8 22/23/8
f 24/29/9 34/30/9 33/28/9 23/27/9
f 25/31/10 35/32/10 34/30/10 24/29/10
f 26/33/11 36/34/11 35/32/11 25/31/11
f 27/35/12 37/36/12 36/34/12 26/33/12
f 28/37/13 38/38/13 37/36/13 27/35/13
f 29/39/14 39/40/14 38/38/14 28/37/14
f 30/41/9 40/42/9 39/40/9 29/39/9
f 32/24/15 42/43/15 41/44/15 31/25/15
f 33/28/16 43/45/16 42/43/16 32/24/16
f 34/30/17 44/46/17 43/45/17 33/28/17
f 35/32/18 45/47/18 44/46/18 34/30/18
f 36/34/19 46/48/19 45/47/19 35/32/19
f 37/36/20 47/49/20 46/48/20 36/34/20
f 38/38/21 48/50/21 47/49/21 37/36/21
f 39/40/22 49/51/22 48/50/22 38/38/22
f 40/42/17 50/52/17 49/51/17 39/40/17
f 42/43/23 52/53/23 51/54/23 41/44/23
f 43/45/24 53/55/24 52/53/24 42/43/24
f 44/46/25 54/56/25 53/55/25 43/45/25
f 45/47/26 55/57/26 54/56/26 44/46/26
f 46/48/27 56/58/27 55/57/27 45/47/27
f 47/49/28 57/59/28 56/58/28 46/48/28
f 48/50/29 58/60/29 57/59/29 47/49/29
f 49/51/30 59/61/30 58/60/30 48/50/30
f 50/52/25 60/62/25 59/61/25 49/51/25
f 52/53/31 22/63/31 21/64/31 51/54/31
f 53/55/32 23/65/32 22/63/32 52/53/32
f 54/56/33 24/66/33 23/65/33 53/55/33
f 55/57/34 25/67/34 24/66/34 54/56/34
f 56/58/35 26/68/35 25/67/35 55/57/35
f 57/59/36 27/69/36 26/68/36 56/58/36
f 58/60/37 28/70/37 27/69/37 57/59/37
f 59/61/38 29/71/38 28/70/38 58/60/38
f 60/62/33 30/72/33 29/71/33 59/61/33
